<?xml version="1.0" encoding="UTF-8" standalone="no"?>
<svg
   version="1.1"
   width="300"
   height="300"
   id="svg19"
   xmlns="http://www.w3.org/2000/svg"
   xmlns:svg="http://www.w3.org/2000/svg">
  <defs
     id="defs19" />
  <path
     style="fill:#706559;stroke-width:0.698147;fill-opacity:1"
     id="path19-5-13-8-5-3-5"
     d="m 172.66983,97.411705 a 8.4730072,8.2320461 0 0 1 -8.47175,8.232045 8.4730072,8.2320461 0 0 1 -8.47426,-8.229596 8.4730072,8.2320461 0 0 1 8.46922,-8.234494 8.4730072,8.2320461 0 0 1 8.47679,8.227147 l -8.47301,0.0049 z" />
  <path
     style="fill:#706559;stroke-width:0.921315;fill-opacity:1"
     id="path19-5-13-8-5"
     d="m 238.72757,98.954636 a 11.18147,10.863484 0 0 1 -11.17981,10.863484 11.18147,10.863484 0 0 1 -11.18313,-10.860252 11.18147,10.863484 0 0 1 11.17648,-10.866716 11.18147,10.863484 0 0 1 11.18645,10.85702 l -11.18146,0.0065 z" />
  <path
     style="fill:#706559;stroke-width:0.698147;fill-opacity:1"
     id="path19-5-13-8-5-3"
     d="m 201.83763,108.33508 a 8.4730072,8.2320461 0 0 1 -8.47175,8.23205 8.4730072,8.2320461 0 0 1 -8.47426,-8.2296 8.4730072,8.2320461 0 0 1 8.46922,-8.23449 8.4730072,8.2320461 0 0 1 8.47679,8.22714 l -8.47301,0.005 z" />
  <path
     style="fill:#706559;stroke-width:0.921315;fill-opacity:1"
     id="path19-5-13-8-8"
     d="M 213.36294,75.863487 A 11.18147,10.863484 0 0 1 202.18314,86.726972 11.18147,10.863484 0 0 1 191,75.866719 11.18147,10.863484 0 0 1 202.17648,65.000004 11.18147,10.863484 0 0 1 213.36294,75.857023 l -11.18147,0.0065 z" />
  <path
     style="fill:#706559;stroke-width:0.921315;fill-opacity:1"
     id="path19-5-13-8"
     d="m 178.00338,63.336445 a 11.18147,10.863484 0 0 1 -11.1798,10.863484 11.18147,10.863484 0 0 1 -11.18313,-10.860252 11.18147,10.863484 0 0 1 11.17647,-10.866715 11.18147,10.863484 0 0 1 11.18646,10.857019 l -11.18147,0.0065 z" />
  <path
     style="fill:#706559;stroke-width:1.03658;fill-opacity:1"
     id="path19-5-13"
     d="M 180.94495,26.538666 A 12.657432,12.148199 0 0 1 168.2894,38.686865 12.657432,12.148199 0 0 1 155.63009,26.54228 a 12.657432,12.148199 0 0 1 12.65178,-12.151812 12.657432,12.148199 0 0 1 12.66308,12.14097 l -12.65743,0.0072 z" />
  <path
     style="fill:#706559;stroke-width:1.03658;fill-opacity:1"
     id="path19-5-1"
     d="M 223.22372,37.500069 A 12.657432,12.148199 0 0 1 210.56817,49.648268 12.657432,12.148199 0 0 1 197.90885,37.503683 12.657432,12.148199 0 0 1 210.56064,25.351871 12.657432,12.148199 0 0 1 223.22371,37.49284 l -12.65743,0.0072 z" />
  <path
     style="fill:#706559;stroke-width:1.03658;fill-opacity:1"
     id="path19-5"
     d="M 255.74653,62.828197 A 12.657432,12.148199 0 0 1 243.09098,74.976396 12.657432,12.148199 0 0 1 230.43167,62.831812 12.657432,12.148199 0 0 1 243.08345,50.68 12.657432,12.148199 0 0 1 255.74653,62.820969 l -12.65743,0.0072 z" />
  <path
     style="fill:#706559;stroke-width:1.03658;fill-opacity:1"
     id="path19"
     d="M 277.81835,92.531715 A 12.657432,12.148199 0 0 1 265.1628,104.67991 12.657432,12.148199 0 0 1 252.50349,92.53533 12.657432,12.148199 0 0 1 265.15527,80.383518 12.657432,12.148199 0 0 1 277.81835,92.524487 l -12.65743,0.0072 z" />
  <path
     d="M0 0 C0 5.94 0 11.88 0 18 C-4.2384375 18.5878125 -4.2384375 18.5878125 -8.5625 19.1875 C-28.53218622 22.24027808 -46.45352241 30.06674799 -62 43 C-62.88429687 43.7321875 -63.76859375 44.464375 -64.6796875 45.21875 C-85.20806913 62.93929827 -96.92461945 88.33703088 -100 115 C-101.58447607 142.33065888 -95.22918837 170.54621156 -77.0234375 191.73828125 C-76.35570312 192.48464844 -75.68796875 193.23101562 -75 194 C-73.93652344 195.25876953 -73.93652344 195.25876953 -72.8515625 196.54296875 C-55.43729021 216.73741433 -28.92398667 229.87483911 -2.26171875 231.90625 C-1.51535156 231.9371875 -0.76898438 231.968125 0 232 C0.98355469 232.0515625 1.96710938 232.103125 2.98046875 232.15625 C32.71558764 232.97747308 60.33195764 221.75709977 81.94970703 201.49951172 C100.36920833 183.63833981 112.46614615 158.19670071 113.3359375 132.43359375 C113.36535667 130.10171172 113.37788562 127.76956582 113.375 125.4375 C113.37483887 124.21329346 113.37467773 122.98908691 113.37451172 121.7277832 C113.2490892 111.69068098 111.82520837 102.59952186 109 93 C108.01 89.535 108.01 89.535 107 86 C113.27 86 119.54 86 126 86 C134.68593114 109.16248303 134.50170983 135.2489666 128 159 C127.82871582 159.65677734 127.65743164 160.31355469 127.48095703 160.99023438 C118.92242249 192.98813681 95.65921404 219.09082597 67.52734375 235.51953125 C49.1090559 245.86982095 28.53989985 250.4361172 7.5625 250.375 C6.85923584 250.37445618 6.15597168 250.37391235 5.43139648 250.37335205 C-28.08239297 250.25454253 -56.69649291 237.99603994 -81 215 C-81.8353125 214.22914063 -82.670625 213.45828125 -83.53125 212.6640625 C-107.30766427 189.98840815 -118.58926176 157.31348515 -119.375 125 C-118.60248974 94.43949393 -108.58363348 64.91799708 -88 42 C-87.47422363 41.41379883 -86.94844727 40.82759766 -86.40673828 40.22363281 C-64.66905633 16.42456359 -32.60828699 0 0 0 Z "
     fill="#706559"
     transform="translate(142,35)"
     id="path1" />
  <path
     d="M0 0 C7.94978387 6.47616539 11.73826896 14.84767165 13.125 24.8125 C13.94123594 37.7780939 12.74521166 49.61393972 4.125 59.8125 C-1.27718987 65.59512578 -7.49598028 68.79344411 -15.4609375 69.24609375 C-17.05712575 69.26914578 -18.65376995 69.26994885 -20.25 69.25 C-21.50127686 69.24081543 -21.50127686 69.24081543 -22.77783203 69.23144531 C-31.24754602 69.01668759 -38.80247274 67.05370857 -44.875 60.8125 C-54.27356403 49.07634441 -55.22171998 36.38382352 -53.875 21.8125 C-52.0159404 12.51720201 -47.23518618 4.98482537 -39.5625 -0.5625 C-28.22589158 -7.53887441 -11.21617882 -7.32889388 0 0 Z M-33.875 13.8125 C-39.38025246 22.34057512 -39.97404748 31.48185329 -38.484375 41.41796875 C-36.82258997 47.60705275 -33.11332494 51.2639573 -27.875 54.8125 C-22.7078841 56.53487197 -17.76900242 56.46811622 -12.625 54.6875 C-7.29321191 51.05218994 -4.50769118 46.98770085 -2.875 40.8125 C-2.00746058 32.55431148 -1.60620534 23.11076183 -5.875 15.8125 C-10.44638304 11.02947885 -13.87924918 8.65552324 -20.5625 8.4375 C-26.3722966 8.5070784 -30.03036653 9.33425376 -33.875 13.8125 Z "
     fill="#83A640"
     transform="translate(169.875,130.1875)"
     id="path2" />
  <path
     d="M0 0 C42.7037037 0 42.7037037 0 51 8 C58.37754165 15.68493922 59.4593318 25.83514852 59.35351562 36.08007812 C59.02331862 45.97655422 56.36958926 56.05031661 49.58984375 63.5625 C43.27315669 69.22225161 37.12884604 70.45188872 29.00390625 70.29296875 C28.26394409 70.28994751 27.52398193 70.28692627 26.76159668 70.28381348 C24.02842017 70.26825619 21.29544433 70.22637333 18.5625 70.1875 C12.436875 70.125625 6.31125 70.06375 0 70 C0 46.9 0 23.8 0 0 Z M15 13 C15 27.52 15 42.04 15 57 C31.23513556 58.4725312 31.23513556 58.4725312 37.4375 54.5 C42.71972733 49.08233095 43.50486251 41.17716975 43.4375 34 C43.45748047 33.24460937 43.47746094 32.48921875 43.49804688 31.7109375 C43.49320658 26.07683792 42.18693526 21.68559139 39 17 C31.66926153 11.31867768 24.49677822 13 15 13 Z "
     fill="#B65659"
     transform="translate(54,127)"
     id="path3" />
  <path
     d="M0 0 C18.81 0 37.62 0 57 0 C57 4.62 57 9.24 57 14 C50.07 14 43.14 14 36 14 C36 32.48 36 50.96 36 70 C31.05 70 26.1 70 21 70 C21 51.52 21 33.04 21 14 C14.07 14 7.14 14 0 14 C0 9.38 0 4.76 0 0 Z "
     fill="#E6A23E"
     transform="translate(183,127)"
     id="path4" />
</svg>
