<?xml version="1.0" standalone="no"?>
<!DOCTYPE svg PUBLIC "-//W3C//DTD SVG 20010904//EN"
 "http://www.w3.org/TR/2001/REC-SVG-20010904/DTD/svg10.dtd">
<svg version="1.0" xmlns="http://www.w3.org/2000/svg"
 width="400.000000pt" height="400.000000pt" viewBox="0 0 400.000000 400.000000"
 preserveAspectRatio="xMidYMid meet">
<metadata>
Created by potrace 1.14, written by Peter Selinger 2001-2017
</metadata>
<g transform="translate(0.000000,400.000000) scale(0.100000,-0.100000)"
fill="#000000" stroke="none">
<path d="M1248 3490 c-43 -13 -96 -49 -118 -79 -18 -26 -24 -28 -87 -28 -93 1
-166 -40 -203 -114 -20 -38 -22 -39 -73 -39 -89 -1 -161 -44 -205 -125 -15
-27 -17 -98 -18 -733 0 -386 3 -731 7 -765 20 -169 130 -362 266 -468 110 -87
193 -125 335 -153 88 -18 248 -13 317 9 13 4 19 -5 29 -42 30 -111 121 -180
228 -171 54 5 56 4 85 -33 53 -68 157 -100 234 -73 39 13 41 13 75 -20 55 -52
87 -67 148 -71 108 -8 107 -8 633 517 262 261 495 499 518 528 73 92 131 226
149 340 12 76 6 211 -12 291 -57 257 -268 475 -528 546 -46 13 -100 18 -203
17 -126 0 -148 -3 -220 -28 -156 -53 -224 -102 -420 -303 -60 -62 -112 -113
-115 -113 -3 0 -13 21 -22 48 -20 56 -81 118 -134 137 -27 10 -87 14 -199 13
-88 0 -166 0 -173 1 -10 1 -12 80 -11 374 2 414 1 415 -66 478 -61 58 -145 81
-217 59z m130 -100 c18 -11 41 -34 52 -52 19 -31 20 -51 20 -395 0 -283 -3
-363 -12 -364 -58 -3 -117 -9 -144 -13 l-32 -6 1 318 c1 280 -1 323 -16 364
-10 25 -27 54 -37 63 -24 22 -25 41 -5 61 46 46 119 56 173 24z m-270 -110
c18 -11 41 -34 52 -52 18 -30 19 -50 17 -362 l-2 -331 -62 -41 c-35 -22 -73
-50 -86 -62 -13 -12 -26 -22 -30 -22 -4 0 -7 142 -7 316 0 348 -3 370 -57 434
-30 35 -33 42 -22 62 39 73 129 99 197 58z m-281 -151 c46 -22 74 -62 79 -114
1 -16 3 -226 4 -465 l1 -435 39 80 c69 141 186 239 335 283 59 17 527 26 585
11 45 -11 97 -61 105 -100 10 -43 -1 -90 -29 -121 -43 -51 -71 -56 -312 -56
-122 0 -240 -3 -262 -7 -60 -10 -126 -56 -159 -112 -25 -43 -28 -59 -32 -156
-5 -153 4 -207 43 -264 87 -127 277 -139 377 -25 54 61 61 92 64 257 2 165 11
197 62 233 28 19 83 37 83 27 0 -3 -9 -24 -21 -46 -25 -49 -27 -128 -5 -180 8
-20 49 -72 91 -115 l76 -79 -6 -70 c-6 -82 -13 -123 -24 -143 -5 -8 -94 -101
-198 -206 -105 -105 -197 -201 -205 -214 -32 -47 -215 -72 -349 -46 -136 26
-261 93 -357 193 -55 56 -142 192 -142 221 0 9 -4 20 -9 26 -5 5 -12 29 -16
54 -4 24 -9 49 -13 54 -8 15 -10 1384 -1 1424 9 40 42 79 84 98 42 18 62 17
112 -7z m2208 -413 c421 -143 589 -618 350 -991 -41 -65 -1006 -1031 -1045
-1047 -78 -32 -173 18 -193 103 -15 62 1 83 338 423 180 180 325 330 322 332
-2 2 -21 -5 -43 -15 -68 -32 -141 -44 -238 -38 -102 5 -174 28 -252 80 -49 32
-376 351 -407 397 -23 33 -21 98 2 136 22 37 97 76 132 70 13 -3 30 -5 37 -5
8 -1 98 -83 200 -184 206 -202 229 -217 333 -212 78 3 119 27 214 120 97 97
115 128 122 212 13 151 -100 267 -253 258 -73 -4 -126 -35 -228 -136 -50 -49
-100 -95 -111 -102 -35 -24 -78 -27 -120 -8 -51 23 -75 50 -85 96 -15 68 2 97
143 238 73 73 150 146 172 164 64 49 165 99 235 117 98 24 98 24 200 21 72 -2
114 -9 175 -29z m-286 -462 c71 -42 102 -135 68 -201 -25 -47 -175 -191 -213
-203 -37 -12 -78 -9 -115 10 -26 13 -169 150 -169 162 0 3 10 10 23 14 12 3
70 54 128 111 136 133 195 156 278 107z m-1146 -130 c3 -4 1 -16 -5 -28 -7
-13 -12 -81 -13 -171 -1 -117 -5 -157 -18 -181 -64 -123 -227 -124 -285 -1
-17 36 -20 60 -18 159 2 106 4 119 28 155 39 60 75 73 199 73 58 0 109 -3 112
-6z m556 -577 c25 -23 57 -49 71 -58 l24 -16 -225 -224 c-124 -123 -233 -238
-242 -254 -8 -17 -18 -51 -22 -75 -9 -58 -10 -60 -49 -60 -42 0 -110 44 -129
84 -17 38 -14 98 8 129 18 25 505 517 513 517 3 0 26 -19 51 -43z m231 -127
c19 -6 62 -13 95 -17 33 -3 62 -7 65 -10 2 -2 -96 -104 -218 -226 -123 -122
-232 -236 -243 -254 -11 -18 -23 -57 -26 -88 -7 -63 -24 -79 -80 -77 -95 4
-160 97 -130 187 12 36 463 495 487 495 8 0 31 -5 50 -10z"/>
</g>
</svg>
